<svg width="33" height="33" viewBox="0 0 33 33" fill="none" xmlns="http://www.w3.org/2000/svg">
<path d="M9.72214 0.00515747C7.16399 -0.0737534 4.67841 0.862137 2.80753 2.60871C1.87972 3.53794 1.15313 4.64822 0.672995 5.87044C0.192857 7.09266 -0.0305482 8.40064 0.0166884 9.71294V23.3417C-0.0612793 24.6279 0.134565 25.916 0.591281 27.1209C1.048 28.3258 1.75519 29.4201 2.66612 30.3314C3.57706 31.2427 4.671 31.9503 5.87566 32.4075C7.08033 32.8647 8.36829 33.061 9.65445 32.9835H23.3535C24.6411 33.028 25.9242 32.8091 27.1242 32.3402C28.3242 31.8713 29.4159 31.1623 30.3323 30.2567C31.215 29.3401 31.9051 28.256 32.3621 27.0684C32.8191 25.8807 33.0336 24.6136 32.993 23.3417V9.64525C33.0428 8.34851 32.8267 7.0553 32.3581 5.84519C31.8895 4.63508 31.1783 3.53366 30.2681 2.60871C28.374 0.856911 25.8662 -0.0784264 23.2875 0.00515747H9.72214ZM4.87635 28.1947C4.26569 27.547 3.792 26.7828 3.48363 25.9477C3.17527 25.1126 3.03858 24.2239 3.08175 23.3347V9.70426C3.03486 8.80738 3.16965 7.91027 3.47803 7.06678C3.78642 6.22329 4.26204 5.45081 4.87635 4.7957C6.20847 3.60641 7.95194 2.9837 9.73602 3.06H23.3014C25.0855 2.98389 26.8289 3.60657 28.1611 4.7957C28.8006 5.42694 29.3021 6.18402 29.6341 7.01907C29.966 7.85411 30.121 8.74895 30.0893 9.64699V23.3417C30.1228 25.1103 29.4718 26.8235 28.2722 28.1235C27.6247 28.7345 26.8605 29.2084 26.0254 29.5168C25.1904 29.8252 24.3016 29.9617 23.4125 29.9183H9.72214C7.94267 30.0062 6.20067 29.3866 4.87635 28.1947ZM8.00043 16.5655C8.00043 18.2476 8.4992 19.892 9.43368 21.2906C10.3682 22.6892 11.6964 23.7793 13.2503 24.423C14.8043 25.0668 16.5143 25.2352 18.164 24.907C19.8137 24.5789 21.329 23.7688 22.5184 22.5794C23.7077 21.39 24.5177 19.8745 24.8458 18.2247C25.174 16.5749 25.0056 14.8649 24.3619 13.3108C23.7182 11.7567 22.6282 10.4284 21.2296 9.49389C19.8311 8.55936 18.1869 8.06055 16.5048 8.06055C14.2518 8.06559 12.0924 8.96255 10.4987 10.5553C8.90507 12.1481 8.00684 14.3071 8.00043 16.5603V16.5655ZM11.0603 16.5655C11.0596 15.4868 11.3789 14.4321 11.9778 13.5349C12.5767 12.6378 13.4283 11.9385 14.4248 11.5255C15.4213 11.1126 16.5178 11.0045 17.5757 11.215C18.6336 11.4256 19.6053 11.9452 20.3678 12.7082C21.1303 13.4712 21.6493 14.4433 21.8591 15.5014C22.069 16.5595 21.9602 17.6561 21.5467 18.6524C21.1331 19.6486 20.4333 20.4998 19.5358 21.0982C18.6383 21.6966 17.5835 22.0152 16.5048 22.0139C15.0605 22.0079 13.6771 21.4314 12.656 20.4099C11.6349 19.3884 11.0588 18.0047 11.0533 16.5603L11.0603 16.5655ZM23.4264 25.2787C23.4281 25.6597 23.5426 26.0316 23.7554 26.3475C23.9683 26.6634 24.2699 26.9093 24.6223 27.0539C24.9747 27.1986 25.3621 27.2357 25.7355 27.1604C26.1089 27.0852 26.4517 26.901 26.7205 26.6312C26.9894 26.3613 27.1723 26.0178 27.2462 25.6441C27.3201 25.2704 27.2817 24.8832 27.1358 24.5313C26.9898 24.1794 26.7429 23.8786 26.4263 23.6669C26.1096 23.4552 25.7373 23.342 25.3564 23.3417C25.1022 23.3408 24.8503 23.3901 24.6153 23.4868C24.3802 23.5835 24.1665 23.7256 23.9866 23.9051C23.8066 24.0846 23.6638 24.2979 23.5665 24.5328C23.4692 24.7676 23.4192 25.0193 23.4195 25.2735L23.4264 25.2787Z" fill="#005CFF"/>
</svg>
